# xmcd
# 
# Track frame offsets:
#     182
#     18235
#     41442
#     65470
#     95672
#     120240
#     138015
#     163257
#     179120
#     196295
#     214662
# 
# Disc length: 3213
# 
# Revision: 19
# Processed by: cddbd v1.5.2PL0 Copyright (c) Steve Scherf et al.
# Submitted via: fre:ac v1.0.31
# 
DISCID=950c8b0b
DTITLE=John Lee Hooker - Don't Look Back
DYEAR=1997
DGENRE=Blues
TTITLE0=Dimples
TTITLE1=The Healing Game [duet with Van Morrison]
TTITLE2=Ain't No Big Thing
TTITLE3=Don't Look Back [duet with Van Morrison]
TTITLE4=Blues Before Sunrise
TTITLE5=Spellbound
TTITLE6=Travellin' Blues [duet with Van Morrison]
TTITLE7=I Love You Honey
TTITLE8=Frisco Blues
TTITLE9=Red House
TTITLE10=Rainy Day [duet with Van Morrison]
EXTD=
EXTT0=
EXTT1=
EXTT2=
EXTT3=
EXTT4=
EXTT5=
EXTT6=
EXTT7=
EXTT8=
EXTT9=
EXTT10=
PLAYORDER=
